<svg xmlns="http://www.w3.org/2000/svg" viewBox="0 0 576 161.3">
  <g fill="none">
    <g fill="#edf0f1">
      <path d="M565.6 31.5c-6.4 0-10.3 4.6-10.3 10.4v59.7c0 8.3-5 14.9-14.9 14.9-9.8 0-14.8-6.6-14.8-14.9V42a10 10 0 00-10.4-10.4c-6.5 0-10.3 4.6-10.3 10.4v59.8c.7 18.6 12.8 33.4 35.5 33.4 22.8 0 34.7-14.8 35.5-33.4h.1V42a10 10 0 00-10.4-10.4zM472.5 85c-7.3-7.3-24-14.5-28.3-19.6a8.8 8.8 0 015.2-14.6c4-.7 8.1-.1 11.4 1.2 4.2 1.6 7.3 4 10.6 4.3a9 9 0 008.1-3.8c2.5-3.6 2-8.3-.8-11.3-8-9.6-24.4-10.6-32.5-9.3-7.9 1.3-15.5 5.2-20.3 12a28.7 28.7 0 002.6 35.8c6.7 7.6 16.8 11.5 24.6 16.5 1.6 1 3.7 2.6 4.8 3.7a10 10 0 011 12.7 10 10 0 01-5.5 3.9c-2 .6-4.6.7-6 .6-6.8-.1-13.8-4.7-15.8-5.6a8.8 8.8 0 00-10.8 3c-2 3-2 6.7-.3 9.6 1 1.8 2.8 4 5.3 5.6 12 8 26.3 6.7 34.3 4.6a28.1 28.1 0 0016.5-11.3c8.3-12 6.4-28.2-4-38zM396.1 33h-53.6c-5.2 0-9.4 3-9.4 9.4s4.2 9.4 9.4 9.4H359v72.9c0 5.7 3.4 10.4 10.4 10.4s10.4-4.6 10.4-10.4V51.8H396c5.2 0 9.5-3 9.5-9.4s-4.2-9.5-9.5-9.5zM302.7 31.5c-6.5 0-10.4 4.6-10.4 10.4v82.8c0 5.7 3.3 10.4 10.4 10.4 7 0 10.3-4.6 10.3-10.4V41.9a10 10 0 00-10.3-10.4zM266.7 120l-22.6-43.4c16.8-20.3 19.2-32.2 19.5-34l.2-1.7c0-5.1-4.2-9.3-9.4-9.3-3.6 0-6.7 2-8.5 5-1.8 2.8-5.2 10.7-15 24.5-6 8.3-12.6 15-15 17.4V42a10 10 0 00-10.3-10.3c-6.5 0-10.4 4.6-10.4 10.3v82.9c0 5.7 3.3 10.3 10.4 10.3 7 0 10.4-4.6 10.4-10.3v-20c2.2-2.2 7.2-7 12.7-12.7l19.5 37.5c2.7 5.1 8.6 6.7 14 4.7 5.5-2.1 7.2-9.3 4.5-14.4z"/>
    </g>
    <g fill="#f75239">
      <path d="M109.9 34.9a51.1 51.1 0 00-41.2 2.3l-1.4.7v26.2c0 .4 0 1.8-.2 3a10.3 10.3 0 01-10.7 8.3l-1.4-.2a4975.2 4975.2 0 01-27.7-10.4A204.6 204.6 0 001.9 90.4l-.5.6a4.7 4.7 0 000 5.3c.9 1.2 2.3 2 3.6 2a4.5 4.5 0 003.1-1C16.8 91 26.4 86 36.7 81.8c.7-.4 1.6-.6 2.3-.5 1.2 0 2.3.5 3.1 1.3a4.7 4.7 0 01.4 6.2L41 91.4c-5.5 8.9-9.8 18.6-13.2 28.8l-.2.7v.1c-.3 1.2 0 2.5.7 3.6 1 1.2 2.3 2 3.7 2 1 .1 2-.2 2.8-.8.4-.2.7-.5 1-.9l.3-.4a134.8 134.8 0 0184-54.7h.7c1.6 0 2.8 1.4 2.7 3 0 1.3-1 2.3-2.3 2.6C95 81 48 112 64.4 157.1l.9 1.8c.8 1.2 2.2 2 3.6 2 .8 0 3-.2 4.4-2.6 2.6-5 7.7-10.7 22.2-16.8 40.5-16.7 47.2-40.7 48-56v-.8A51.6 51.6 0 00109.9 35zM69.2 153.7a44 44 0 011-32.2 32.3 32.3 0 0023.1 14.7c-15 6.3-21 12.5-24 17.5z"/>
      <path d="M.7 36.4l.3.4c3.8 5.1 8.2 9.7 12.8 13.7a50.6 50.6 0 0013.1 8 6562.7 6562.7 0 0029 11.1 4.6 4.6 0 005.4-3.7l.1-1.6V34.9c.1-4.5-1.3-11.2-2.6-15v-.2c-2.1-5.8-4.8-11.5-8.3-17l-.2-.4a4.7 4.7 0 00-6.5-1.1c-.4.2-.6.5-.9.8l-.5.8A31.7 31.7 0 0037 25.6a54.4 54.4 0 00-5.2 3c-.3.3-2.8 2-4.7 3.8-7-4-15.4-5.1-23.2-3.3l-1 .2-1 .5a4.7 4.7 0 00-1.3 6.5zM46.5 7.5c2.4 4.1 4.5 8.4 6.2 12.8a57 57 0 00-9.8 2.6c-.4-5.4.8-10.7 3.6-15.4zM22.6 37a50.3 50.3 0 00-6 8.1A78.2 78.2 0 017 34.7c5.4-1 10.8-.2 15.7 2.2z"/>
    </g>
  </g>
</svg>
